<svg width="19" height="19" viewBox="0 0 19 19" fill="none" xmlns="http://www.w3.org/2000/svg">
<path d="M1.88462 3.26904C1.51739 3.26904 1.16521 3.41492 0.905544 3.67459C0.645879 3.93425 0.5 4.28644 0.5 4.65366V17.1152C0.5 17.4825 0.645879 17.8346 0.905544 18.0943C1.16521 18.354 1.51739 18.4999 1.88462 18.4999H17.1154C17.4826 18.4999 17.8348 18.354 18.0945 18.0943C18.3541 17.8346 18.5 17.4825 18.5 17.1152V4.65366C18.5 4.28644 18.3541 3.93425 18.0945 3.67459C17.8348 3.41492 17.4826 3.26904 17.1154 3.26904H14.3462" stroke="#9E9E9E" stroke-linecap="round" stroke-linejoin="round"/>
<path d="M4.6543 0.5V6.03848" stroke="#9E9E9E" stroke-linecap="round" stroke-linejoin="round"/>
<path d="M14.3457 0.5V6.03848" stroke="#9E9E9E" stroke-linecap="round" stroke-linejoin="round"/>
<path d="M4.6543 3.26904H11.5774" stroke="#9E9E9E" stroke-linecap="round" stroke-linejoin="round"/>
<path d="M12.9621 13.6538H6.03906" stroke="#9E9E9E" stroke-linecap="round" stroke-linejoin="round"/>
<path d="M0.5 8.80762H18.5" stroke="#9E9E9E" stroke-linecap="round" stroke-linejoin="round"/>
</svg>
