<svg width="13" height="13" viewBox="0 0 13 13" fill="none" xmlns="http://www.w3.org/2000/svg">
<path d="M7.42308 12.5H1.42308C1.17826 12.5 0.943473 12.4027 0.770363 12.2296C0.597252 12.0565 0.5 11.8217 0.5 11.5769V1.42308C0.5 1.17826 0.597252 0.943473 0.770363 0.770363C0.943473 0.597252 1.17826 0.5 1.42308 0.5H8.34615" stroke="#9E9E9E" stroke-linecap="round" stroke-linejoin="round"/>
<path d="M9.73096 3.26923L11.1156 0.5L12.5002 3.26923V11.1154C12.5002 11.4826 12.3543 11.8348 12.0946 12.0945C11.835 12.3541 11.4828 12.5 11.1156 12.5C10.7483 12.5 10.3962 12.3541 10.1365 12.0945C9.87684 11.8348 9.73096 11.4826 9.73096 11.1154V3.26923Z" stroke="#9E9E9E" stroke-linecap="round" stroke-linejoin="round"/>
<path d="M9.73096 8.80774H12.5002" stroke="#9E9E9E" stroke-linecap="round" stroke-linejoin="round"/>
<path d="M3.26904 0.5V12.5" stroke="#9E9E9E" stroke-linecap="round" stroke-linejoin="round"/>
<path d="M5.57715 3.73071H7.4233" stroke="#9E9E9E" stroke-linecap="round" stroke-linejoin="round"/>
</svg>
