<svg width="18" height="17" viewBox="0 0 18 17" fill="none" xmlns="http://www.w3.org/2000/svg">
<path d="M7.52791 2.45387C3.65191 2.45387 0.509792 5.59601 0.509792 9.47205C0.509792 13.3481 3.65191 16.4902 7.52791 16.4902C11.3188 16.4902 14.4077 13.4846 14.5415 9.72629M7.52791 9.47205L14.546 3.08932L14.2447 1.35618C14.1031 0.542229 13.103 0.225752 12.519 0.810112L9.74037 3.59035C9.54928 3.78155 9.44195 4.04079 9.44195 4.3111V7.71705" stroke="#9E9E9E" stroke-width="1.2" stroke-linecap="round"/>
<path d="M7.52628 6.27943C5.76446 6.27943 4.33622 7.70767 4.33622 9.46948C4.33622 11.2313 5.76446 12.6595 7.52628 12.6595C9.19308 12.6595 10.5613 11.3812 10.704 9.75144" stroke="#9E9E9E" stroke-width="1.2" stroke-linecap="round"/>
<path d="M10.0764 7.556L12.7442 8.22259C13.071 8.30423 13.417 8.21924 13.6687 7.99549L17.004 5.03109C17.7047 4.40825 17.2642 3.24943 16.3266 3.24943H14.5424" stroke="#9E9E9E" stroke-width="1.2" stroke-linecap="round"/>
</svg>
