<svg width="210" height="76" viewBox="0 0 210 76" fill="none" xmlns="http://www.w3.org/2000/svg">
<mask id="path-1-inside-1_4074_38472" fill="white">
<path d="M0 0H210V76H0V0Z"/>
</mask>
<path d="M0 0H210V76H0V0Z" fill="white"/>
<path d="M210 76V77H211V76H210ZM210 0H209V76H210H211V0H210ZM210 76V75H0V76V77H210V76Z" fill="#E8E8E8" mask="url(#path-1-inside-1_4074_38472)"/>
<g clip-path="url(#clip0_4074_38472)">
<path d="M109.845 43.0891L106.306 34.7893L104.617 38.8881C104.275 39.6986 103.493 40.2258 102.628 40.2258H100.642H99.3113H99.3081L101.175 35.814L104.346 28.3477C104.685 27.5405 105.463 27.0133 106.325 27.01H106.335C107.194 27.01 107.972 27.5273 108.314 28.3313L111.815 36.4993L115.306 28.3346C115.641 27.5405 116.52 27.0166 117.337 27.0232C117.337 27.0232 118.041 27.01 118.751 27.6294C119.074 27.9095 119.32 28.272 119.484 28.6706L122.487 35.8041L128.846 35.8107C130.128 35.8107 131.148 36.9837 130.98 38.3247C130.841 39.4252 129.892 40.2291 128.807 40.2291H121.112C120.272 40.2291 119.51 39.7316 119.158 38.954L117.369 34.7201L113.798 43.0924C113.045 44.8552 110.597 44.8552 109.845 43.0924V43.0891Z" fill="#FF6B00"/>
<path d="M90.4763 35.8137L92.3428 31.4117H100.254C101.449 31.4117 102.418 30.4233 102.418 29.2042C102.415 27.9883 101.446 26.9999 100.251 26.9999H90.9672C90.8218 26.9999 90.6798 27.0164 90.5441 27.0427C89.8499 27.1679 89.2266 27.6358 88.9295 28.3475L85.7649 35.8137H81.1665C79.9717 35.8137 79.0029 36.8022 79.0029 38.0213C79.0029 39.2404 79.9717 40.2289 81.1665 40.2289H83.8952L81.4797 45.9257C81.0115 47.046 81.5185 48.3442 82.6196 48.822C82.8974 48.9439 83.1848 48.9999 83.4689 48.9999C84.3085 48.9999 85.1094 48.4991 85.4581 47.6589L88.6098 40.2256H98.0165L99.883 35.8137H90.4795H90.4763Z" fill="#FF6B00"/>
</g>
<defs>
<clipPath id="clip0_4074_38472">
<rect width="52" height="22" fill="white" transform="translate(79 27)"/>
</clipPath>
</defs>
</svg>
