<svg width="52" height="22" viewBox="0 0 52 22" fill="none" xmlns="http://www.w3.org/2000/svg">
<g clip-path="url(#clip0_0_3)">
<path d="M30.845 16.0891L27.3058 7.78925L25.6169 11.8881C25.2746 12.6986 24.4932 13.2258 23.6277 13.2258H21.6418H20.3113H20.3081L22.1746 8.81396L25.3457 1.34774C25.6847 0.540487 26.463 0.0133047 27.3252 0.0100098H27.3349C28.1938 0.0100098 28.9721 0.527308 29.3144 1.33126L32.8148 9.4993L36.3056 1.33456C36.6415 0.540487 37.5198 0.0165996 38.3368 0.0231893C38.3368 0.0231893 39.0408 0.0100098 39.7512 0.62945C40.0741 0.909516 40.3195 1.27195 40.4842 1.67064L43.4874 8.80408L49.8457 8.81067C51.1277 8.81067 52.1481 9.98365 51.9802 11.3247C51.8414 12.4252 50.892 13.2291 49.807 13.2291H42.1117C41.2722 13.2291 40.5101 12.7316 40.1581 11.954L38.3691 7.72006L34.7976 16.0924C34.0452 17.8552 31.5974 17.8552 30.845 16.0924V16.0891Z" fill="#FF6B00"/>
<path d="M11.4763 8.81372L13.3428 4.41174H21.2544C22.4492 4.41174 23.4179 3.42327 23.4179 2.20416C23.4147 0.988346 22.446 -0.00012207 21.2511 -0.00012207H11.9672C11.8218 -0.00012207 11.6798 0.0163524 11.5441 0.0427115C10.8499 0.167917 10.2266 0.635792 9.92953 1.34749L6.7649 8.81372H2.1665C0.971693 8.81372 0.00292969 9.80219 0.00292969 11.0213C0.00292969 12.2404 0.971693 13.2289 2.1665 13.2289H4.89519L2.47974 18.9257C2.0115 20.046 2.51849 21.3442 3.61965 21.822C3.89736 21.9439 4.18476 21.9999 4.46893 21.9999C5.30852 21.9999 6.10937 21.4991 6.45812 20.6589L9.60983 13.2256H19.0165L20.883 8.81372H11.4795H11.4763Z" fill="#FF6B00"/>
</g>
<defs>
<clipPath id="clip0_0_3">
<rect width="52" height="22" fill="white"/>
</clipPath>
</defs>
</svg>
