<?xml version="1.0" encoding="UTF-8"?>
<svg id="Layer_2" data-name="Layer 2" xmlns="http://www.w3.org/2000/svg" viewBox="0 0 50.84 65.15">
  <defs>
    <style>
      .cls-1, .cls-2, .cls-3 {
        fill: none;
        stroke: #f15a24;
      }

      .cls-1, .cls-3 {
        stroke-miterlimit: 10;
      }

      .cls-2 {
        stroke-linejoin: round;
      }

      .cls-2, .cls-3 {
        stroke-linecap: round;
      }
    </style>
  </defs>
  <g id="Layer_1-2" data-name="Layer 1">
    <g>
      <path class="cls-2" d="M29.3,57.93c-7.12,1.45-7.16,6.72-7.16,6.72-5.26-8.22,3.2-10.61,3.2-10.61-5.61-3.19-2.3-8.26-2.3-8.26,6,.5,6.21,7.39,6.21,7.39,10.72.69,8.25-9.44-4.32-11.11C2.3,39.06-3.71,16.41,3.22,11.63c5.09-3.51,22,2.75,29.03,7.08,4.63,2.85,8.88,6.41,11.89,10.94,0,0,15.48,22.12-14.84,28.28Z"/>
      <circle class="cls-1" cx="16.01" cy="20.79" r="1.93"/>
      <path class="cls-3" d="M2.39,12.54s1.43,14.8,17.41,19.72"/>
      <path class="cls-3" d="M19.64,29.04s0,8.63,6.02,10.49c.8.25,1.62-.35,1.61-1.19-.02-2.35.17-6.82,1.78-8.72"/>
      <path class="cls-2" d="M27.78,34.7s7.27,2.33,10.24,7.23c3.3,5.44-1.78,10.81-5.81,11.11"/>
      <path class="cls-2" d="M42.48,6.27h0c-1.18,1.05-1.74,2.63-1.5,4.19l1.86,12.1,6.71-10.09c.91-1.37,1.04-3.13.32-4.61l-.07-.14c-1.35-2.81-5.01-3.53-7.33-1.46Z"/>
      <path class="cls-2" d="M25.62,5.58h0c-.15,1.86.64,3.68,2.12,4.83l11.45,8.89-2.43-14.13c-.33-1.92-1.65-3.53-3.48-4.23l-.17-.06c-3.44-1.32-7.18,1.04-7.49,4.71Z"/>
    </g>
  </g>
</svg>