<svg width="40" height="40" viewBox="0 0 40 40" fill="none" xmlns="http://www.w3.org/2000/svg">
<path d="M30.508 13.9746C30.508 21.3394 27.405 27.4565 20.8627 28.6686C20.0847 28.8222 19.2611 28.8945 18.3829 28.8945H16.3928C13.597 28.8945 11.0549 27.7637 9.21728 25.9272C7.38972 24.0908 6.25 21.5564 6.25 18.7605C6.25 18.7149 6.25 18.6615 6.2589 18.6159C6.33124 16.0281 8.43929 13.9746 11.0448 13.9746H30.5069H30.508Z" fill="#FF9748"/>
<path d="M31.4186 11.5675C31.4186 13.4686 30.0029 15.0101 29.6923 15.0101C29.4853 15.0101 27.9661 13.4686 27.9661 11.5675C27.9661 9.66652 29.5154 8.125 29.6923 8.125C29.8548 8.125 31.4186 9.66652 31.4186 11.5675Z" fill="#FF9748"/>
<path d="M32.7419 16.3432C30.8408 16.3432 29.2993 14.9274 29.2993 14.6169C29.2993 14.3064 30.8408 12.8906 32.7419 12.8906C34.6429 12.8906 36.1844 14.4399 36.1844 14.6169C36.1844 14.7794 34.6429 16.3432 32.7419 16.3432Z" fill="#FF9748"/>
<path d="M20.8627 28.6679C20.0847 28.8215 19.2611 28.8939 18.3829 28.8939H16.3928C13.597 28.8939 11.0549 27.7631 9.21728 25.9266C7.38972 24.0901 6.25 21.5558 6.25 18.7599C6.25 18.7143 6.25 18.6609 6.2589 18.6152C7.0547 19.9909 9.14828 24.7045 16.8815 24.7045L20.8627 28.6679Z" fill="#FFE7C5"/>
<path d="M16.885 24.71C16.885 24.71 18.2362 29.9134 23.9526 30.3975C24.3578 30.432 24.6661 30.0324 24.5203 29.6529L22.6081 24.6855L16.885 24.71Z" fill="#FF9748"/>
<path d="M16.2058 22.6118C16.6336 22.6118 16.9805 22.265 16.9805 21.8372C16.9805 21.4093 16.6336 21.0625 16.2058 21.0625C15.778 21.0625 15.4312 21.4093 15.4312 21.8372C15.4312 22.265 15.778 22.6118 16.2058 22.6118Z" fill="#84471F"/>
</svg>
