<svg width="45" height="34" viewBox="0 0 45 34" fill="none" xmlns="http://www.w3.org/2000/svg">
<path d="M0.51123 15.7305C0.609422 20.3946 2.09866 23.5367 4.7662 26.1388C7.4992 28.79 11.2796 30.4429 15.4364 30.4429H18.4148C18.7749 30.4429 19.1349 30.4265 19.4786 30.4101" stroke="black" stroke-width="2" stroke-miterlimit="10" stroke-linecap="round"/>
<path d="M15.8975 24.8843H15.9139C15.9139 24.8843 16.814 28.3373 19.9561 30.8249C21.4764 32.0343 23.5532 33.0162 26.2977 33.2469C26.8983 33.2976 27.3565 32.7134 27.1405 32.1504L26.0276 29.2702C32.0991 26.2589 35.3067 19.5819 35.8468 11.5957C36.7469 12.1193 37.9252 12.5776 39.218 12.5776C42.0165 12.5776 44.2913 10.2864 44.2913 10.041C44.2913 9.77911 42.0165 7.50434 39.218 7.50434C38.3016 7.50434 37.467 7.74982 36.7142 8.09349C37.0415 7.34068 37.2869 6.48969 37.2869 5.55687C37.2869 2.75841 34.9794 0.5 34.734 0.5C34.4885 0.5 32.1973 2.75841 32.1973 5.55687C32.1973 6.94792 32.7538 8.19168 33.3429 9.10814H7.32212C4.88533 9.10814 2.74148 10.3323 1.48135 12.2061C0.190134 14.1241 0.157403 16.9716 1.47644 18.8717C3.36009 21.5834 7.69852 24.9955 15.8975 24.8859V24.8843Z" stroke="black" stroke-width="2" stroke-miterlimit="10"/>
<path d="M14.911 22.2663C15.5401 22.2663 16.05 21.7564 16.05 21.1273C16.05 20.4982 15.5401 19.9883 14.911 19.9883C14.2819 19.9883 13.772 20.4982 13.772 21.1273C13.772 21.7564 14.2819 22.2663 14.911 22.2663Z" fill="black"/>
</svg>
